<?xml version="1.0" encoding="utf-8"?>
<!DOCTYPE svg PUBLIC "-//W3C//DTD SVG 1.1//EN" "http://www.w3.org/Graphics/SVG/1.1/DTD/svg11.dtd">
<svg version="1.1" xmlns="http://www.w3.org/2000/svg" xmlns:xlink="http://www.w3.org/1999/xlink" x="0px" y="0px" viewBox="0 0 1000 1000" enable-background="new 0 0 1000 1000" xml:space="preserve">
<metadata> Svg Vector Icons : http://www.onlinewebfonts.com/icon </metadata>
<g><g transform="translate(0.000000,512.000000) scale(0.100000,-0.100000)"><path d="M3998.1,4998.1c-848.7-120.7-1615.1-599.7-2084.4-1300.9C1565,3172.3,1406,2647.3,1406,2009.4c0-367.8,38.3-616.9,143.7-933c297-888.9,1025-1618.9,1904.4-1908.2c95.8-30.6,195.4-61.3,226.1-69l51.7-11.5v235.7v237.6l-128.4,42.2c-205,65.1-536.4,239.5-716.5,373.6c-513.4,387-864.1,946.4-988.6,1578.6c-44.1,226.1-44.1,701.2,0,927.3c99.6,502,321.9,929.2,674.4,1297c364,379.3,789.3,616.9,1312.4,731.9c262.5,59.4,743.3,63.2,996.2,11.5c1040.3-220.3,1802.8-977.1,2025.1-2011.6c47.9-224.2,47.9-764.4-1.9-990.5c-44.1-206.9-130.3-448.3-224.1-634.1l-72.8-145.6l159-157.1c88.1-84.3,170.5-155.2,182-155.2c28.7,0,258.6,475.1,318,659.1c109.2,341,132.2,507.7,132.2,931.1c0,331.4-7.7,423.4-42.2,586.3c-262.5,1212.7-1174.4,2118.9-2379.5,2364.2C4718.5,5023,4258.7,5036.4,3998.1,4998.1z"/><path d="M4258.7,3626.3c-634.2-51.7-1178.3-482.8-1392.8-1109.3c-59.4-174.3-61.3-195.4-63.2-479c0-344.9,21.1-450.2,151.4-718.5c101.5-214.6,260.6-413.8,436.8-555.6c116.9-92,295-201.2,331.4-201.2c5.7,0,9.6,115,9.6,254.8v256.7L3638,1153c-122.6,103.5-272.1,329.5-329.5,496.2c-38.3,109.2-46,168.6-46,369.8c0,289.3,38.3,423.4,185.8,643.7c155.2,231.8,400.4,406.2,666.7,477.1c137.9,36.4,440.6,36.4,582.4,0c254.8-67.1,526.9-260.6,672.5-479c145.6-218.4,222.2-542.2,183.9-766.3l-19.2-115l183.9-176.3c143.7-137.9,189.7-172.4,201.2-149.4c9.6,15.3,34.5,93.9,55.6,176.3c57.5,210.7,57.5,569,0,781.7C5766.5,3195.3,5069.1,3689.6,4258.7,3626.3z"/><path d="M4392.8,1925.1c-92-42.1-132.2-84.3-172.4-180.1c-24.9-61.3-28.7-379.3-28.7-2724.3c0-2567.3,1.9-2657.3,36.4-2726.3c44.1-88.1,88.1-128.4,180.1-166.7c82.4-34.5,130.3-36.4,233.7-7.7c65.1,17.3,147.5,92,521.1,473.2c243.3,249,446.4,450.2,450.2,444.5c3.8-5.8,157.1-362.1,339.1-795.1c183.9-433,356.4-816.2,383.2-852.6c28.7-36.4,99.6-92,157.1-120.7c162.8-84.3,239.5-70.9,687.8,120.7c323.8,138,385.1,172.4,461.7,249.1c99.6,101.5,145.6,233.7,122.6,358.3c-7.7,40.2-164.8,431.1-352.5,867.9l-339.1,795.1l624.6,9.6c616.9,11.5,622.7,11.5,708.9,57.5c233.7,130.3,251,377.4,40.2,595.8c-59.4,59.4-911.9,887-1896.7,1837.3c-1230,1187.8-1814.3,1739.6-1868,1764.5C4582.5,1971,4490.5,1971,4392.8,1925.1z M6318.2-471.7c689.7-666.7,1256.8-1218.5,1260.6-1228.1c3.9-7.7-212.6-17.2-479-21.1c-448.3-5.7-490.4-9.6-561.3-46c-113-59.4-191.6-195.4-191.6-331.5c0-95.8,38.3-195.4,377.4-988.6l377.5-881.3l-128.4-59.4c-70.9-32.6-145.6-65.2-166.7-70.9c-34.5-11.5-74.7,70.9-410,862.1c-377.4,889-421.5,969.4-546,1034.6c-80.5,42.2-252.9,40.2-335.3-3.8c-36.4-17.2-210.7-182-388.9-362.1l-319.9-327.6l-1.9,1944.6V992L4935,865.6C5005.9,796.6,5628.5,195,6318.2-471.7z"/></g></g>
</svg>